<svg xmlns="http://www.w3.org/2000/svg"
     width="64" height="64"
     viewBox="0 0 64 64"
     shape-rendering="crispEdges">
  <rect x="28" y="1" width="8" height="1" fill="#135e0c"/>
  <rect x="25" y="2" width="3" height="1" fill="#135e0c"/>
  <rect x="28" y="2" width="5" height="1" fill="#417f3c"/>
  <rect x="33" y="2" width="1" height="1" fill="#417f3d"/>
  <rect x="34" y="2" width="2" height="1" fill="#417f3c"/>
  <rect x="36" y="2" width="3" height="1" fill="#11460c"/>
  <rect x="23" y="3" width="2" height="1" fill="#135e0c"/>
  <rect x="25" y="3" width="14" height="1" fill="#417f3c"/>
  <rect x="39" y="3" width="1" height="1" fill="#11460c"/>
  <rect x="40" y="3" width="1" height="1" fill="#11460d"/>
  <rect x="22" y="4" width="1" height="1" fill="#135e0c"/>
  <rect x="23" y="4" width="4" height="1" fill="#417f3c"/>
  <rect x="27" y="4" width="3" height="1" fill="#43af39"/>
  <rect x="30" y="4" width="11" height="1" fill="#417f3c"/>
  <rect x="41" y="4" width="1" height="1" fill="#11460c"/>
  <rect x="21" y="5" width="1" height="1" fill="#135e0c"/>
  <rect x="22" y="5" width="2" height="1" fill="#417f3c"/>
  <rect x="24" y="5" width="1" height="1" fill="#43af39"/>
  <rect x="25" y="5" width="3" height="1" fill="#63c55a"/>
  <rect x="28" y="5" width="1" height="1" fill="#43af38"/>
  <rect x="29" y="5" width="13" height="1" fill="#417f3c"/>
  <rect x="42" y="5" width="1" height="1" fill="#11460c"/>
  <rect x="20" y="6" width="1" height="1" fill="#135e0c"/>
  <rect x="21" y="6" width="2" height="1" fill="#417f3c"/>
  <rect x="23" y="6" width="1" height="1" fill="#43af39"/>
  <rect x="24" y="6" width="1" height="1" fill="#63c55a"/>
  <rect x="25" y="6" width="1" height="1" fill="#dbdbdb"/>
  <rect x="26" y="6" width="1" height="1" fill="#dbdbda"/>
  <rect x="27" y="6" width="1" height="1" fill="#63c55a"/>
  <rect x="28" y="6" width="15" height="1" fill="#417f3c"/>
  <rect x="43" y="6" width="1" height="1" fill="#11460c"/>
  <rect x="19" y="7" width="1" height="1" fill="#135e0c"/>
  <rect x="20" y="7" width="2" height="1" fill="#417f3c"/>
  <rect x="22" y="7" width="1" height="1" fill="#43af39"/>
  <rect x="23" y="7" width="1" height="1" fill="#63c55a"/>
  <rect x="24" y="7" width="2" height="1" fill="#dbdbdb"/>
  <rect x="26" y="7" width="1" height="1" fill="#63c55a"/>
  <rect x="27" y="7" width="1" height="1" fill="#43af39"/>
  <rect x="28" y="7" width="16" height="1" fill="#417f3c"/>
  <rect x="44" y="7" width="1" height="1" fill="#11460c"/>
  <rect x="18" y="8" width="1" height="1" fill="#135e0c"/>
  <rect x="19" y="8" width="2" height="1" fill="#417f3c"/>
  <rect x="21" y="8" width="1" height="1" fill="#43af39"/>
  <rect x="22" y="8" width="1" height="1" fill="#63c55a"/>
  <rect x="23" y="8" width="3" height="1" fill="#dbdbdb"/>
  <rect x="26" y="8" width="1" height="1" fill="#63c55a"/>
  <rect x="27" y="8" width="1" height="1" fill="#135e0c"/>
  <rect x="28" y="8" width="11" height="1" fill="#417f3c"/>
  <rect x="39" y="8" width="1" height="1" fill="#407f3c"/>
  <rect x="40" y="8" width="1" height="1" fill="#417e3c"/>
  <rect x="41" y="8" width="4" height="1" fill="#417f3c"/>
  <rect x="45" y="8" width="1" height="1" fill="#11460c"/>
  <rect x="17" y="9" width="1" height="1" fill="#135e0c"/>
  <rect x="18" y="9" width="2" height="1" fill="#417f3c"/>
  <rect x="20" y="9" width="1" height="1" fill="#43af39"/>
  <rect x="21" y="9" width="1" height="1" fill="#63c55a"/>
  <rect x="22" y="9" width="2" height="1" fill="#dbdbdb"/>
  <rect x="24" y="9" width="2" height="1" fill="#63c55a"/>
  <rect x="26" y="9" width="1" height="1" fill="#135e0c"/>
  <rect x="27" y="9" width="8" height="1" fill="#417f3c"/>
  <rect x="35" y="9" width="1" height="1" fill="#417e3c"/>
  <rect x="36" y="9" width="10" height="1" fill="#417f3c"/>
  <rect x="46" y="9" width="1" height="1" fill="#11460c"/>
  <rect x="17" y="10" width="1" height="1" fill="#135e0c"/>
  <rect x="18" y="10" width="2" height="1" fill="#417f3c"/>
  <rect x="20" y="10" width="1" height="1" fill="#63c55a"/>
  <rect x="21" y="10" width="3" height="1" fill="#dbdbdb"/>
  <rect x="24" y="10" width="1" height="1" fill="#63c55a"/>
  <rect x="25" y="10" width="1" height="1" fill="#135e0c"/>
  <rect x="26" y="10" width="20" height="1" fill="#417f3c"/>
  <rect x="46" y="10" width="1" height="1" fill="#11460c"/>
  <rect x="16" y="11" width="1" height="1" fill="#135e0c"/>
  <rect x="17" y="11" width="2" height="1" fill="#417f3c"/>
  <rect x="19" y="11" width="1" height="1" fill="#43af39"/>
  <rect x="20" y="11" width="1" height="1" fill="#63c55a"/>
  <rect x="21" y="11" width="2" height="1" fill="#dbdbdb"/>
  <rect x="23" y="11" width="1" height="1" fill="#63c55a"/>
  <rect x="24" y="11" width="1" height="1" fill="#135e0c"/>
  <rect x="25" y="11" width="22" height="1" fill="#417f3c"/>
  <rect x="47" y="11" width="1" height="1" fill="#11460c"/>
  <rect x="15" y="12" width="1" height="1" fill="#135e0c"/>
  <rect x="16" y="12" width="3" height="1" fill="#417f3c"/>
  <rect x="19" y="12" width="1" height="1" fill="#63c55a"/>
  <rect x="20" y="12" width="3" height="1" fill="#dbdbdb"/>
  <rect x="23" y="12" width="1" height="1" fill="#135e0c"/>
  <rect x="24" y="12" width="1" height="1" fill="#417f3c"/>
  <rect x="25" y="12" width="1" height="1" fill="#417e3c"/>
  <rect x="26" y="12" width="4" height="1" fill="#417f3c"/>
  <rect x="30" y="12" width="1" height="1" fill="#417e3c"/>
  <rect x="31" y="12" width="3" height="1" fill="#417f3c"/>
  <rect x="34" y="12" width="1" height="1" fill="#417e3c"/>
  <rect x="35" y="12" width="3" height="1" fill="#417f3c"/>
  <rect x="38" y="12" width="1" height="1" fill="#407f3c"/>
  <rect x="39" y="12" width="9" height="1" fill="#417f3c"/>
  <rect x="48" y="12" width="1" height="1" fill="#11460c"/>
  <rect x="15" y="13" width="1" height="1" fill="#135e0c"/>
  <rect x="16" y="13" width="3" height="1" fill="#417f3c"/>
  <rect x="19" y="13" width="1" height="1" fill="#63c55a"/>
  <rect x="20" y="13" width="1" height="1" fill="#dbdbdb"/>
  <rect x="21" y="13" width="1" height="1" fill="#63c55b"/>
  <rect x="22" y="13" width="1" height="1" fill="#63c55a"/>
  <rect x="23" y="13" width="1" height="1" fill="#135e0c"/>
  <rect x="24" y="13" width="24" height="1" fill="#417f3c"/>
  <rect x="48" y="13" width="1" height="1" fill="#11460c"/>
  <rect x="15" y="14" width="1" height="1" fill="#135e0c"/>
  <rect x="16" y="14" width="3" height="1" fill="#417f3c"/>
  <rect x="19" y="14" width="1" height="1" fill="#43af39"/>
  <rect x="20" y="14" width="2" height="1" fill="#63c55a"/>
  <rect x="22" y="14" width="1" height="1" fill="#135e0c"/>
  <rect x="23" y="14" width="12" height="1" fill="#417f3c"/>
  <rect x="35" y="14" width="1" height="1" fill="#417e3c"/>
  <rect x="36" y="14" width="12" height="1" fill="#417f3c"/>
  <rect x="48" y="14" width="1" height="1" fill="#11460c"/>
  <rect x="14" y="15" width="1" height="1" fill="#135e0c"/>
  <rect x="15" y="15" width="1" height="1" fill="#407f3c"/>
  <rect x="16" y="15" width="2" height="1" fill="#417f3c"/>
  <rect x="18" y="15" width="3" height="1" fill="#43af39"/>
  <rect x="21" y="15" width="1" height="1" fill="#135e0c"/>
  <rect x="22" y="15" width="11" height="1" fill="#417f3c"/>
  <rect x="33" y="15" width="1" height="1" fill="#417f3d"/>
  <rect x="34" y="15" width="3" height="1" fill="#417f3c"/>
  <rect x="37" y="15" width="1" height="1" fill="#407f3c"/>
  <rect x="38" y="15" width="1" height="1" fill="#417e3c"/>
  <rect x="39" y="15" width="10" height="1" fill="#417f3c"/>
  <rect x="49" y="15" width="1" height="1" fill="#11460c"/>
  <rect x="14" y="16" width="1" height="1" fill="#135e0c"/>
  <rect x="15" y="16" width="1" height="1" fill="#407f3c"/>
  <rect x="16" y="16" width="1" height="1" fill="#417e3c"/>
  <rect x="17" y="16" width="14" height="1" fill="#417f3c"/>
  <rect x="31" y="16" width="1" height="1" fill="#407f3c"/>
  <rect x="32" y="16" width="17" height="1" fill="#417f3c"/>
  <rect x="49" y="16" width="1" height="1" fill="#11460c"/>
  <rect x="14" y="17" width="1" height="1" fill="#135e0c"/>
  <rect x="15" y="17" width="2" height="1" fill="#417f3c"/>
  <rect x="17" y="17" width="1" height="1" fill="#407f3c"/>
  <rect x="18" y="17" width="17" height="1" fill="#417f3c"/>
  <rect x="35" y="17" width="1" height="1" fill="#417f3d"/>
  <rect x="36" y="17" width="2" height="1" fill="#417f3c"/>
  <rect x="38" y="17" width="1" height="1" fill="#407f3c"/>
  <rect x="39" y="17" width="10" height="1" fill="#417f3c"/>
  <rect x="49" y="17" width="1" height="1" fill="#11460c"/>
  <rect x="14" y="18" width="1" height="1" fill="#135e0c"/>
  <rect x="15" y="18" width="34" height="1" fill="#417f3c"/>
  <rect x="49" y="18" width="1" height="1" fill="#11460c"/>
  <rect x="14" y="19" width="1" height="1" fill="#135e0c"/>
  <rect x="15" y="19" width="33" height="1" fill="#417f3c"/>
  <rect x="48" y="19" width="1" height="1" fill="#417e3c"/>
  <rect x="49" y="19" width="1" height="1" fill="#11460c"/>
  <rect x="14" y="20" width="1" height="1" fill="#135e0c"/>
  <rect x="15" y="20" width="6" height="1" fill="#417f3c"/>
  <rect x="21" y="20" width="1" height="1" fill="#417e3d"/>
  <rect x="22" y="20" width="20" height="1" fill="#417f3c"/>
  <rect x="42" y="20" width="1" height="1" fill="#407f3c"/>
  <rect x="43" y="20" width="6" height="1" fill="#417f3c"/>
  <rect x="49" y="20" width="1" height="1" fill="#11460c"/>
  <rect x="14" y="21" width="1" height="1" fill="#135e0c"/>
  <rect x="15" y="21" width="10" height="1" fill="#417f3c"/>
  <rect x="25" y="21" width="1" height="1" fill="#417e3c"/>
  <rect x="26" y="21" width="5" height="1" fill="#417f3c"/>
  <rect x="31" y="21" width="1" height="1" fill="#407f3c"/>
  <rect x="32" y="21" width="16" height="1" fill="#417f3c"/>
  <rect x="48" y="21" width="1" height="1" fill="#407f3c"/>
  <rect x="49" y="21" width="1" height="1" fill="#11460c"/>
  <rect x="14" y="22" width="1" height="1" fill="#135e0c"/>
  <rect x="15" y="22" width="15" height="1" fill="#417f3c"/>
  <rect x="30" y="22" width="1" height="1" fill="#417e3c"/>
  <rect x="31" y="22" width="18" height="1" fill="#417f3c"/>
  <rect x="49" y="22" width="1" height="1" fill="#11460c"/>
  <rect x="14" y="23" width="1" height="1" fill="#135e0c"/>
  <rect x="15" y="23" width="5" height="1" fill="#417f3c"/>
  <rect x="20" y="23" width="1" height="1" fill="#417f3d"/>
  <rect x="21" y="23" width="3" height="1" fill="#417f3c"/>
  <rect x="24" y="23" width="1" height="1" fill="#417e3c"/>
  <rect x="25" y="23" width="24" height="1" fill="#417f3c"/>
  <rect x="49" y="23" width="1" height="1" fill="#11460c"/>
  <rect x="15" y="24" width="1" height="1" fill="#135e0c"/>
  <rect x="16" y="24" width="13" height="1" fill="#417f3c"/>
  <rect x="29" y="24" width="1" height="1" fill="#417f3d"/>
  <rect x="30" y="24" width="18" height="1" fill="#417f3c"/>
  <rect x="48" y="24" width="1" height="1" fill="#11460c"/>
  <rect x="15" y="25" width="1" height="1" fill="#135e0c"/>
  <rect x="16" y="25" width="9" height="1" fill="#417f3c"/>
  <rect x="25" y="25" width="1" height="1" fill="#417f3d"/>
  <rect x="26" y="25" width="15" height="1" fill="#417f3c"/>
  <rect x="41" y="25" width="2" height="1" fill="#417e3c"/>
  <rect x="43" y="25" width="5" height="1" fill="#417f3c"/>
  <rect x="48" y="25" width="1" height="1" fill="#11460c"/>
  <rect x="15" y="26" width="1" height="1" fill="#135e0c"/>
  <rect x="16" y="26" width="1" height="1" fill="#417e3c"/>
  <rect x="17" y="26" width="26" height="1" fill="#417f3c"/>
  <rect x="43" y="26" width="1" height="1" fill="#417e3c"/>
  <rect x="44" y="26" width="2" height="1" fill="#417f3c"/>
  <rect x="46" y="26" width="1" height="1" fill="#417f3d"/>
  <rect x="47" y="26" width="1" height="1" fill="#417f3c"/>
  <rect x="48" y="26" width="1" height="1" fill="#11460c"/>
  <rect x="16" y="27" width="1" height="1" fill="#135e0c"/>
  <rect x="17" y="27" width="30" height="1" fill="#417f3c"/>
  <rect x="47" y="27" width="1" height="1" fill="#11460c"/>
  <rect x="17" y="28" width="1" height="1" fill="#11460c"/>
  <rect x="18" y="28" width="28" height="1" fill="#417f3c"/>
  <rect x="46" y="28" width="1" height="1" fill="#11460c"/>
  <rect x="17" y="29" width="1" height="1" fill="#11460c"/>
  <rect x="18" y="29" width="11" height="1" fill="#417f3c"/>
  <rect x="29" y="29" width="1" height="1" fill="#417f3d"/>
  <rect x="30" y="29" width="1" height="1" fill="#417f3c"/>
  <rect x="31" y="29" width="1" height="1" fill="#417e3c"/>
  <rect x="32" y="29" width="2" height="1" fill="#417f3c"/>
  <rect x="34" y="29" width="1" height="1" fill="#417f3d"/>
  <rect x="35" y="29" width="11" height="1" fill="#417f3c"/>
  <rect x="46" y="29" width="1" height="1" fill="#11460c"/>
  <rect x="18" y="30" width="1" height="1" fill="#11460c"/>
  <rect x="19" y="30" width="7" height="1" fill="#417f3c"/>
  <rect x="26" y="30" width="1" height="1" fill="#417f3d"/>
  <rect x="27" y="30" width="18" height="1" fill="#417f3c"/>
  <rect x="45" y="30" width="1" height="1" fill="#11460c"/>
  <rect x="19" y="31" width="1" height="1" fill="#11460c"/>
  <rect x="20" y="31" width="1" height="1" fill="#407f3c"/>
  <rect x="21" y="31" width="10" height="1" fill="#417f3c"/>
  <rect x="31" y="31" width="1" height="1" fill="#417e3c"/>
  <rect x="32" y="31" width="7" height="1" fill="#417f3c"/>
  <rect x="39" y="31" width="1" height="1" fill="#417f3d"/>
  <rect x="40" y="31" width="4" height="1" fill="#417f3c"/>
  <rect x="44" y="31" width="1" height="1" fill="#11460c"/>
  <rect x="20" y="32" width="1" height="1" fill="#11460c"/>
  <rect x="21" y="32" width="1" height="1" fill="#417f3d"/>
  <rect x="22" y="32" width="9" height="1" fill="#417f3c"/>
  <rect x="31" y="32" width="1" height="1" fill="#417e3c"/>
  <rect x="32" y="32" width="1" height="1" fill="#417f3d"/>
  <rect x="33" y="32" width="7" height="1" fill="#417f3c"/>
  <rect x="40" y="32" width="1" height="1" fill="#417e3c"/>
  <rect x="41" y="32" width="2" height="1" fill="#417f3c"/>
  <rect x="43" y="32" width="1" height="1" fill="#11460c"/>
  <rect x="21" y="33" width="1" height="1" fill="#11460c"/>
  <rect x="22" y="33" width="10" height="1" fill="#417f3c"/>
  <rect x="32" y="33" width="1" height="1" fill="#407f3c"/>
  <rect x="33" y="33" width="9" height="1" fill="#417f3c"/>
  <rect x="42" y="33" width="1" height="1" fill="#11460c"/>
  <rect x="22" y="34" width="1" height="1" fill="#11460c"/>
  <rect x="23" y="34" width="1" height="1" fill="#417f3c"/>
  <rect x="24" y="34" width="1" height="1" fill="#417f3d"/>
  <rect x="25" y="34" width="1" height="1" fill="#407f3c"/>
  <rect x="26" y="34" width="2" height="1" fill="#417f3c"/>
  <rect x="28" y="34" width="1" height="1" fill="#417e3c"/>
  <rect x="29" y="34" width="5" height="1" fill="#417f3c"/>
  <rect x="34" y="34" width="1" height="1" fill="#417f3d"/>
  <rect x="35" y="34" width="6" height="1" fill="#417f3c"/>
  <rect x="41" y="34" width="1" height="1" fill="#11460c"/>
  <rect x="23" y="35" width="1" height="1" fill="#11460c"/>
  <rect x="24" y="35" width="16" height="1" fill="#417f3c"/>
  <rect x="40" y="35" width="1" height="1" fill="#11460c"/>
  <rect x="24" y="36" width="1" height="1" fill="#11460c"/>
  <rect x="25" y="36" width="1" height="1" fill="#407f3c"/>
  <rect x="26" y="36" width="13" height="1" fill="#417f3c"/>
  <rect x="39" y="36" width="1" height="1" fill="#11460c"/>
  <rect x="25" y="37" width="1" height="1" fill="#11460c"/>
  <rect x="26" y="37" width="1" height="1" fill="#417e3c"/>
  <rect x="27" y="37" width="11" height="1" fill="#417f3c"/>
  <rect x="38" y="37" width="1" height="1" fill="#11460c"/>
  <rect x="26" y="38" width="1" height="1" fill="#11460c"/>
  <rect x="27" y="38" width="9" height="1" fill="#417f3c"/>
  <rect x="36" y="38" width="1" height="1" fill="#417e3c"/>
  <rect x="37" y="38" width="1" height="1" fill="#11460c"/>
  <rect x="27" y="39" width="1" height="1" fill="#11460c"/>
  <rect x="28" y="39" width="6" height="1" fill="#417f3c"/>
  <rect x="34" y="39" width="1" height="1" fill="#407f3c"/>
  <rect x="35" y="39" width="1" height="1" fill="#417f3c"/>
  <rect x="36" y="39" width="1" height="1" fill="#11460c"/>
  <rect x="28" y="40" width="1" height="1" fill="#11460c"/>
  <rect x="29" y="40" width="1" height="1" fill="#417f3c"/>
  <rect x="30" y="40" width="1" height="1" fill="#417f3d"/>
  <rect x="31" y="40" width="1" height="1" fill="#417f3c"/>
  <rect x="32" y="40" width="1" height="1" fill="#417f3d"/>
  <rect x="33" y="40" width="2" height="1" fill="#417f3c"/>
  <rect x="35" y="40" width="1" height="1" fill="#11460c"/>
  <rect x="29" y="41" width="1" height="1" fill="#11460c"/>
  <rect x="30" y="41" width="2" height="1" fill="#417f3c"/>
  <rect x="32" y="41" width="1" height="1" fill="#407f3c"/>
  <rect x="33" y="41" width="1" height="1" fill="#417f3c"/>
  <rect x="34" y="41" width="1" height="1" fill="#11460c"/>
  <rect x="30" y="42" width="1" height="1" fill="#11460c"/>
  <rect x="31" y="42" width="2" height="1" fill="#417f3c"/>
  <rect x="33" y="42" width="1" height="1" fill="#11460c"/>
  <rect x="30" y="43" width="1" height="1" fill="#11460c"/>
  <rect x="31" y="43" width="2" height="1" fill="#eae3bd"/>
  <rect x="33" y="43" width="1" height="1" fill="#eae2bd"/>
  <rect x="34" y="43" width="1" height="1" fill="#11460c"/>
  <rect x="30" y="44" width="1" height="1" fill="#11460c"/>
  <rect x="31" y="44" width="3" height="1" fill="#417f3c"/>
  <rect x="34" y="44" width="1" height="1" fill="#11460c"/>
  <rect x="30" y="45" width="1" height="1" fill="#11460c"/>
  <rect x="31" y="45" width="1" height="1" fill="#417f3c"/>
  <rect x="32" y="45" width="1" height="1" fill="#eae3bd"/>
  <rect x="33" y="45" width="1" height="1" fill="#417f3c"/>
  <rect x="34" y="45" width="1" height="1" fill="#11460c"/>
  <rect x="30" y="46" width="1" height="1" fill="#535353"/>
  <rect x="31" y="46" width="2" height="1" fill="#eae3bd"/>
  <rect x="33" y="46" width="2" height="1" fill="#535353"/>
  <rect x="30" y="47" width="1" height="1" fill="#535353"/>
  <rect x="31" y="47" width="2" height="1" fill="#eae3bd"/>
  <rect x="33" y="47" width="1" height="1" fill="#535353"/>
  <rect x="29" y="48" width="1" height="1" fill="#535353"/>
  <rect x="30" y="48" width="2" height="1" fill="#eae3bd"/>
  <rect x="32" y="48" width="1" height="1" fill="#535353"/>
  <rect x="28" y="49" width="1" height="3" fill="#535353"/>
  <rect x="29" y="49" width="2" height="3" fill="#eae3bd"/>
  <rect x="31" y="49" width="1" height="3" fill="#535353"/>
  <rect x="29" y="52" width="1" height="1" fill="#535353"/>
  <rect x="30" y="52" width="2" height="1" fill="#eae3bd"/>
  <rect x="32" y="52" width="1" height="1" fill="#535353"/>
  <rect x="30" y="53" width="1" height="2" fill="#535353"/>
  <rect x="31" y="53" width="2" height="2" fill="#eae3bd"/>
  <rect x="33" y="53" width="1" height="2" fill="#535353"/>
  <rect x="29" y="55" width="1" height="1" fill="#535353"/>
  <rect x="30" y="55" width="3" height="1" fill="#eae3bd"/>
  <rect x="33" y="55" width="1" height="1" fill="#535353"/>
  <rect x="29" y="56" width="1" height="1" fill="#535353"/>
  <rect x="30" y="56" width="2" height="1" fill="#eae3bd"/>
  <rect x="32" y="56" width="1" height="1" fill="#535353"/>
  <rect x="29" y="57" width="1" height="1" fill="#535353"/>
  <rect x="30" y="57" width="3" height="1" fill="#eae3bd"/>
  <rect x="33" y="57" width="1" height="1" fill="#535253"/>
  <rect x="30" y="58" width="1" height="2" fill="#535353"/>
  <rect x="31" y="58" width="2" height="2" fill="#eae3bd"/>
  <rect x="33" y="58" width="1" height="2" fill="#535353"/>
  <rect x="30" y="60" width="1" height="1" fill="#535353"/>
  <rect x="31" y="60" width="2" height="1" fill="#f5f0d7"/>
  <rect x="33" y="60" width="1" height="1" fill="#535353"/>
  <rect x="31" y="61" width="2" height="1" fill="#535353"/>
</svg>