<?xml version="1.0" encoding="UTF-8" standalone="no"?>
<!-- Created with Inkscape (http://www.inkscape.org/) -->

<svg
   version="1.1"
   id="svg1"
   width="20480"
   height="20480"
   viewBox="0 0 20480 20480"
   sodipodi:docname="logo.svg"
   inkscape:version="1.3.2 (091e20ef0f, 2023-11-25)"
   xmlns:inkscape="http://www.inkscape.org/namespaces/inkscape"
   xmlns:sodipodi="http://sodipodi.sourceforge.net/DTD/sodipodi-0.dtd"
   xmlns="http://www.w3.org/2000/svg"
   xmlns:svg="http://www.w3.org/2000/svg">
  <defs
     id="defs1" />
  <sodipodi:namedview
     id="namedview1"
     pagecolor="#ffffff"
     bordercolor="#000000"
     borderopacity="0.25"
     inkscape:showpageshadow="2"
     inkscape:pageopacity="0.0"
     inkscape:pagecheckerboard="0"
     inkscape:deskcolor="#d1d1d1"
     inkscape:zoom="0.040087891"
     inkscape:cx="10227.527"
     inkscape:cy="9940.6576"
     inkscape:window-width="1920"
     inkscape:window-height="1043"
     inkscape:window-x="0"
     inkscape:window-y="0"
     inkscape:window-maximized="1"
     inkscape:current-layer="g1" />
  <g
     inkscape:groupmode="layer"
     inkscape:label="Image"
     id="g1">
    <g
       id="g2"
       style="display:inline"
       sodipodi:insensitive="true">
      <path
         style="fill:#dadada"
         d="m 6400,4160 v -320 h 160 160 v -320 -320 h 160 160 v -160 -160 h 160 160 v -160 -160 h 160 160 v -160 -160 h 160 160 v -160 -160 h 320 320 v 160 160 h -160 -160 v 320 320 h -320 -320 v 320 320 h -160 -160 v 320 320 h -320 -320 v 160 160 h -160 -160 z"
         id="path7" />
      <path
         style="fill:#9c74ca"
         d="m 9920,19360 v -800 h -160 -160 v -480 -480 h 160 160 v -320 -320 h -160 -160 v -160 -160 h -160 -160 v -480 -480 h 160 160 v -160 -160 h 160 160 v -320 -320 h 160 160 v -160 -160 h 160 160 v 480 480 h -160 -160 v 160 160 h -160 -160 v 480 480 h 160 160 v 160 160 h 160 160 v 480 480 h -160 -160 v 160 160 h 160 160 v 960 960 h -320 -320 z m 0,-5440 v -160 h 480 480 v 160 160 h -480 -480 z"
         id="path6" />
      <path
         style="fill:#62c459"
         d="m 6400,4640 v -160 h -160 -160 v -320 -320 h 160 160 v -320 -320 h 160 160 v -160 -160 h 160 160 v -160 -160 h 160 160 v -160 -160 h 160 160 v -160 -160 h 160 160 v -160 -160 h 480 480 v 320 320 h -160 -160 v 320 320 h -160 -160 v 160 160 h -160 -160 v 160 160 h -160 -160 v 320 320 h -160 -160 v 160 160 h -160 -160 v 160 160 h -320 -320 z m 320,-320 v -160 h 320 320 v -320 -320 h 160 160 v -320 -320 h 320 320 v -320 -320 h 160 160 v -160 -160 h -320 -320 v 160 160 h -160 -160 v 160 160 h -160 -160 v 160 160 h -160 -160 v 160 160 h -160 -160 v 320 320 h -160 -160 v 320 320 h 160 160 z"
         id="path5" />
      <path
         style="fill:#42ae38"
         d="m 6080,5760 v -320 h -160 -160 v -320 -320 h 160 160 v -160 -160 h 160 160 v 160 160 h 320 320 v -160 -160 h 160 160 v -160 -160 h 160 160 v 160 160 h -160 -160 v 160 160 h -160 -160 v 160 160 h -160 -160 v 320 320 h -160 -160 v 160 160 h -160 -160 z m 0,-2080 v -160 h 160 160 v 160 160 h -160 -160 z m 1600,0 v -160 h 160 160 v -160 -160 h 160 160 v -160 -160 h 160 160 v -320 -320 h 160 160 v 320 320 h -160 -160 v 160 160 h -160 -160 v 160 160 h -160 -160 v 160 160 H 7840 7680 Z M 6400,3040 v -160 h 160 160 v -160 -160 h 160 160 v -160 -160 h 160 160 v -160 -160 h 160 160 v -160 -160 h 160 160 v 160 160 h -160 -160 v 160 160 h -160 -160 v 160 160 h -160 -160 v 160 160 h -160 -160 v 160 160 H 6560 6400 Z M 8960,1760 v -160 h -160 -160 v -160 -160 h 480 480 v 160 160 h -160 -160 v 160 160 h -160 -160 z"
         id="path4" />
      <path
         style="fill:#525252"
         d="m 9600,19520 v -960 h -160 -160 v -480 -480 h 160 160 v -320 -320 h -160 -160 v -160 -160 h -160 -160 v -480 -480 h 160 160 v -160 -160 h 160 160 v -960 -960 h -160 -160 v -160 -160 h -160 -160 v -160 -160 h -160 -160 v -160 -160 h -160 -160 v -160 -160 h -160 -160 v -160 -160 h -160 -160 v -160 -160 h -160 -160 v -160 -160 h -160 -160 v -160 -160 h -160 -160 v -160 -160 h -160 -160 v -160 -160 h -160 -160 v -160 -160 H 5920 5760 V 9760 9600 H 5600 5440 V 9280 8960 H 5280 5120 V 8800 8640 H 4960 4800 V 8160 7680 H 4640 4480 V 6240 4800 h 160 160 v -480 -480 h 160 160 v -160 -160 h 160 160 v -320 -320 h 160 160 v -160 -160 h 160 160 v -160 -160 h 160 160 v -160 -160 h 160 160 v -160 -160 h 160 160 v -160 -160 h 160 160 V 1120 960 h 320 320 V 800 640 h 480 480 V 480 320 h 320 320 V 160 0 h 640 640 v 160 160 h 320 320 v 160 160 h 480 480 v 160 160 h 320 320 v 160 160 h 160 160 v 160 160 h 160 160 v 160 160 h 160 160 v 160 160 h 160 160 v 160 160 h 160 160 v 160 160 h 160 160 v 320 320 h 160 160 v 160 160 h 160 160 v 480 480 h 160 160 v 1440 1440 h -160 -160 v 480 480 h -160 -160 v 160 160 h -160 -160 v 320 320 h -160 -160 v 160 160 h -160 -160 v 160 160 h -160 -160 v 160 160 h -160 -160 v 160 160 h -160 -160 v 160 160 h -160 -160 v 160 160 h -160 -160 v 160 160 h -160 -160 v 160 160 h -160 -160 v 160 160 h -160 -160 v 160 160 h -160 -160 v 160 160 h -160 -160 v 160 160 h -160 -160 v 160 160 h 160 160 v 640 640 h -160 -160 v 160 160 h -160 -160 v 160 160 h -160 -160 v 480 480 h 160 160 v 160 160 h 160 160 v 480 480 h -160 -160 v 160 160 h 160 160 v 1120 1120 h -640 -640 z m 960,-320 v -960 h -160 -160 v -160 -160 h 160 160 v -480 -480 h -160 -160 v -160 -160 h -160 -160 v -480 -480 h 160 160 v -160 -160 h 160 160 v -320 -320 h 160 160 v -480 -480 h -160 -160 v -160 -160 h 160 160 v -160 -160 h 160 160 v -160 -160 h 160 160 v -160 -160 h 160 160 v -160 -160 h 160 160 v -160 -160 h 160 160 v -160 -160 h 160 160 v -160 -160 h 160 160 v -160 -160 h 160 160 v -160 -160 h 160 160 v -160 -160 h 160 160 v -160 -160 h 160 160 v -160 -160 h 160 160 v -320 -320 h 160 160 v -160 -160 h 160 160 v -480 -480 h 160 160 V 6240 4800 h -160 -160 v -480 -480 h -160 -160 v -160 -160 h -160 -160 v -320 -320 h -160 -160 v -160 -160 h -160 -160 v -160 -160 h -160 -160 v -160 -160 h -160 -160 v -160 -160 h -160 -160 v -160 -160 h -320 -320 V 1120 960 h -480 -480 V 800 640 h -320 -320 V 480 320 h -640 -640 v 160 160 h -320 -320 v 160 160 h -480 -480 v 160 160 h -320 -320 v 160 160 h -160 -160 v 160 160 h -160 -160 v 160 160 h -160 -160 v 160 160 h -160 -160 v 160 160 h -160 -160 v 320 320 h -160 -160 v 160 160 h -160 -160 v 480 480 h -160 -160 v 1440 1440 h 160 160 v 480 480 h 160 160 v 160 160 h 160 160 v 320 320 h 160 160 v 160 160 h 160 160 v 160 160 h 160 160 v 160 160 h 160 160 v 160 160 h 160 160 v 160 160 h 160 160 v 160 160 h 160 160 v 160 160 h 160 160 v 160 160 h 160 160 v 160 160 h 160 160 v 160 160 h 160 160 v 160 160 h 160 160 v 160 160 h 160 160 v 960 960 h -160 -160 v 160 160 h -160 -160 v 480 480 h 160 160 v 160 160 h 160 160 v 320 320 h -160 -160 v 480 480 h 160 160 v 800 800 h 320 320 z"
         id="path3" />
      <path
         style="fill:#1d8b13"
         d="m 9920,14400 v -320 h 480 480 v 320 320 h -160 -160 v -160 -160 h -160 -160 v 160 160 h -160 -160 z m 0,-800 v -160 h -160 -160 v -160 -160 h -160 -160 v -160 -160 h -160 -160 v -160 -160 h -160 -160 v -160 -160 h -160 -160 v -160 -160 h -160 -160 v -160 -160 h -160 -160 v -160 -160 h -160 -160 v -160 -160 h -160 -160 v -160 -160 h -160 -160 v -160 -160 h -160 -160 v -160 -160 H 6240 6080 V 9760 9600 H 5920 5760 V 9280 8960 H 5600 5440 V 8800 8640 H 5280 5120 V 8160 7680 H 4960 4800 V 6240 4800 h 160 160 v -480 -480 h 160 160 v -160 -160 h 160 160 v -320 -320 h 160 160 v -160 -160 h 160 160 v -160 -160 h 160 160 v -160 -160 h 160 160 v -160 -160 h 160 160 v -160 -160 h 320 320 V 1120 960 h 480 480 V 800 640 h 320 320 V 480 320 h 640 640 v 160 160 h 320 320 v 160 160 h 480 480 v 160 160 h 320 320 v 160 160 h 160 160 v 160 160 h 160 160 v 160 160 h 160 160 v 160 160 h 160 160 v 160 160 h 160 160 v 320 320 h 160 160 v 160 160 h 160 160 v 480 480 h 160 160 v 1440 1440 h -160 -160 v 480 480 h -160 -160 v 160 160 h -160 -160 v 320 320 h -160 -160 v 160 160 h -160 -160 v 160 160 h -160 -160 v 160 160 h -160 -160 v 160 160 h -160 -160 v 160 160 h -160 -160 v 160 160 h -160 -160 v 160 160 h -160 -160 v 160 160 h -160 -160 v 160 160 h -160 -160 v 160 160 h -160 -160 v 160 160 h -160 -160 v 160 160 h -160 -160 v 160 160 h -320 -320 z M 6400,5920 v -160 h 160 160 v -320 -320 h 160 160 v -160 -160 h 160 160 v -160 -160 h 160 160 v -320 -320 h 160 160 v -160 -160 h 160 160 v -160 -160 h 160 160 v -160 -160 h 160 160 v -480 -480 h 160 160 v -160 -160 h 160 160 v -160 -160 h -480 -480 v 160 160 h -480 -480 v 160 160 h -160 -160 v 160 160 h -160 -160 v 160 160 h -160 -160 v 160 160 h -160 -160 v 320 320 h -160 -160 v 640 640 h -160 -160 v 320 320 h 160 160 v 320 320 h 160 160 z"
         id="path2" />
    </g>
  </g>
</svg>
